PathFileType	4	(X/Y/Z)	RBDS001static.trc
DataRate	CameraRate	NumFrames	NumMarkers	Units	OrigDataRate	OrigDataStartFrame	OrigNumFrames
150.000000	150.000000	4	48	mm	150.000000	93	150
Frame#	Time	L.Ankle			L.Ankle.Medial			L.ASIS			L.GTR			L.Heel.Bottom			L.Heel.Lateral			L.Heel.Top			L.HF			L.Iliac.Crest			L.Knee			L.Knee.Medial			L.MT1			L.MT2			L.MT5			L.PSIS			L.Shank.Bottom.Lateral			L.Shank.Bottom.Medial			L.Shank.Top.Lateral			L.Shank.Top.Medial			L.Thigh.Bottom.Lateral			L.Thigh.Bottom.Medial			L.Thigh.Top.Lateral			L.Thigh.Top.Medial			L.TT			R.Ankle			R.Ankle.Medial			R.ASIS			R.GTR			R.Heel.Bottom			R.Heel.Lateral			R.Heel.Top			R.HF			R.Iliac.Crest			R.Knee			R.Knee.Medial			R.MT1			R.MT2			R.MT5			R.PSIS			R.Shank.Bottom.Lateral			R.Shank.Bottom.Medial			R.Shank.Top.Lateral			R.Shank.Top.Medial			R.Thigh.Bottom.Lateral			R.Thigh.Bottom.Medial			R.Thigh.Top.Lateral			R.Thigh.Top.Medial			R.TT			
		X1	Y1	Z1	X2	Y2	Z2	X3	Y3	Z3	X4	Y4	Z4	X5	Y5	Z5	X6	Y6	Z6	X7	Y7	Z7	X8	Y8	Z8	X9	Y9	Z9	X10	Y10	Z10	X11	Y11	Z11	X12	Y12	Z12	X13	Y13	Z13	X14	Y14	Z14	X15	Y15	Z15	X16	Y16	Z16	X17	Y17	Z17	X18	Y18	Z18	X19	Y19	Z19	X20	Y20	Z20	X21	Y21	Z21	X22	Y22	Z22	X23	Y23	Z23	X24	Y24	Z24	X25	Y25	Z25	X26	Y26	Z26	X27	Y27	Z27	X28	Y28	Z28	X29	Y29	Z29	X30	Y30	Z30	X31	Y31	Z31	X32	Y32	Z32	X33	Y33	Z33	X34	Y34	Z34	X35	Y35	Z35	X36	Y36	Z36	X37	Y37	Z37	X38	Y38	Z38	X39	Y39	Z39	X40	Y40	Z40	X41	Y41	Z41	X42	Y42	Z42	X43	Y43	Z43	X44	Y44	Z44	X45	Y45	Z45	X46	Y46	Z46	X47	Y47	Z47	X48	Y48	Z48	

94	0.62	705.1109008789063	108.8295211791992	1051.0244140625	725.6015625	119.301628112793	1129.116088867188	878.96533203125	1067.125854492188	1127.042602539063	801.1848754882813	965.4329223632813	1057.159545898438	633.3182983398438	43.04988861083984	1085.15234375	663.4391479492188	60.40380477905273	1046.824340820313	641.8306884765625	90.55666351318359	1088.886962890625	734.9337158203125	490.5053405761719	1040.108276367188	817.7879028320313	1135.126220703125	1090.5126953125	752.552978515625	550.5934448242188	1052.508666992188	732.8491821289063	539.8683471679688	1162.42529296875	854.9684448242188	62.7976188659668	1133.470825195313	861.0562744140625	69.67520141601563	1088.63916015625	827.1053466796875	56.56988906860352	1026.712768554688	701.3515625	1099.058715820313	1182.016967773438	713.54443359375	191.67822265625	1043.671630859375	670.6052856445313	190.7921447753906	1072.013916015625	709.0848388671875	271.5043029785156	1031.566162109375	665.7597045898438	274.8612365722656	1063.4443359375	743.9054565429688	675.5560302734375	1043.432250976563	690.7920532226563	678.3226928710938	1094.050537109375	741.8894653320313	786.3076782226563	1040.561157226563	697.03857421875	788.9706420898438	1093.501342773438	786.4769287109375	461.6278991699219	1092.044067382813	702.0460205078125	110.4947052001953	1397.370483398438	720.0439453125	116.6411666870117	1314.747802734375	857.6033935546875	1060.452880859375	1337.573486328125	763.585693359375	966.6055908203125	1385.307373046875	627.5170288085938	42.59043884277344	1360.101684570313	658.3770141601563	58.95183181762695	1403.300659179688	638.9352416992188	90.76780700683594	1359.645141601563	732.0963745117188	491.4663391113281	1397.945678710938	794.8035278320313	1135.609619140625	1359.07275390625	735.1325073242188	553.2869873046875	1387.232421875	731.4765625	540.1077880859375	1271.019165039063	850.2001342773438	64.40331268310547	1319.665771484375	855.095947265625	73.13231658935547	1362.050537109375	829.7308349609375	56.3603401184082	1427.130493164063	697.6773071289063	1097.880493164063	1258.826293945313	702.3060913085938	190.5255126953125	1400.817016601563	660.9042358398438	194.3281860351563	1364.952758789063	698.7169799804688	271.2535705566406	1410.845336914063	658.9985961914063	273.9309387207031	1373.8544921875	734.95458984375	651.1903076171875	1396.892944335938	680.5787353515625	650.6118774414063	1346.296875	727.188232421875	761.7925415039063	1399.348510742188	678.4715576171875	760.58203125	1348.742309570313	781.386474609375	462.5588073730469	1343.974731445313	
95	0.6266666666666667	705.1043701171875	108.8191833496094	1051.015258789063	725.5789794921875	119.3075485229492	1129.108154296875	878.9939575195313	1067.123657226563	1127.057739257813	801.2057495117188	965.4288330078125	1057.17578125	633.3211059570313	43.05171203613281	1085.13818359375	663.44189453125	60.40590667724609	1046.822387695313	641.8313598632813	90.55739593505859	1088.880615234375	734.943359375	490.4934692382813	1040.117797851563	817.749267578125	1135.060791015625	1090.409790039063	752.5748291015625	550.58984375	1052.518310546875	732.8598022460938	539.8710327148438	1162.44140625	854.9706420898438	62.79193878173828	1133.47265625	861.0619506835938	69.66400146484375	1088.642700195313	827.10888671875	56.56914138793945	1026.719604492188	701.3745727539063	1099.052734375	1182.024658203125	713.5458374023438	191.6751556396484	1043.66650390625	670.6065063476563	190.7913513183594	1072.01220703125	709.0858154296875	271.4977722167969	1031.56884765625	665.7640991210938	274.8640747070313	1063.443481445313	743.92041015625	675.5521240234375	1043.442138671875	690.8091430664063	678.3201904296875	1094.064086914063	741.9154663085938	786.3041381835938	1040.562866210938	697.0595703125	788.9700927734375	1093.50732421875	786.4839477539063	461.6153869628906	1092.05322265625	701.7449340820313	110.653564453125	1397.607177734375	720.0421752929688	116.6376113891602	1314.740478515625	857.6221313476563	1060.456787109375	1337.591552734375	763.5997314453125	966.5865478515625	1385.305908203125	627.5187377929688	42.5928955078125	1360.101684570313	658.3722534179688	58.95619201660156	1403.30078125	638.9365844726563	90.75798797607422	1359.639526367188	732.0928955078125	491.4573059082031	1397.941284179688	794.8195190429688	1135.603149414063	1359.078735351563	735.1368408203125	553.2803344726563	1387.236450195313	731.5097045898438	540.1056518554688	1271.031372070313	850.200439453125	64.40277099609375	1319.667358398438	855.104248046875	73.12992858886719	1362.04443359375	829.7345581054688	56.36243438720703	1427.128540039063	697.7018432617188	1097.873779296875	1258.835205078125	702.3110961914063	190.5198211669922	1400.817749023438	660.9021606445313	194.3267211914063	1364.94287109375	698.7181396484375	271.2526550292969	1410.847534179688	658.9974975585938	273.9410705566406	1373.85546875	734.96142578125	651.1766357421875	1396.89453125	680.5933837890625	650.6156616210938	1346.305786132813	727.1978759765625	761.7942504882813	1399.358642578125	678.4893798828125	760.5780639648438	1348.74365234375	781.3927612304688	462.5447692871094	1343.974365234375	
96	0.6333333333333334	705.10791015625	108.822883605957	1051.015991210938	725.5910034179688	119.3084716796875	1129.106079101563	879.0250244140625	1067.117431640625	1127.055419921875	801.2307739257813	965.4182739257813	1057.168212890625	633.3190307617188	43.05477142333984	1085.152221679688	663.4432373046875	60.40810012817383	1046.816284179688	641.8365478515625	90.55317687988281	1088.880493164063	734.9693603515625	490.4978637695313	1040.111694335938	817.7797241210938	1135.05712890625	1090.4091796875	752.586669921875	550.5928955078125	1052.5146484375	732.8638305664063	539.8753051757813	1162.439697265625	854.9696655273438	62.79540634155273	1133.474853515625	861.0560913085938	69.67132568359375	1088.636596679688	827.105712890625	56.57076263427734	1026.711547851563	701.40234375	1099.047729492188	1182.0283203125	713.5477294921875	191.6791534423828	1043.667846679688	670.6123046875	190.7945251464844	1072.00146484375	709.1017456054688	271.5057067871094	1031.564331054688	665.7686767578125	274.86865234375	1063.438232421875	743.9451904296875	675.552490234375	1043.435180664063	690.8253173828125	678.3145141601563	1094.065673828125	741.9366455078125	786.305419921875	1040.565063476563	697.0859985351563	788.9715576171875	1093.517211914063	786.49169921875	461.6225891113281	1092.046997070313	701.742431640625	110.6570510864258	1397.611206054688	720.0524291992188	116.644905090332	1314.741333007813	857.642822265625	1060.46044921875	1337.598022460938	763.6201782226563	966.5830078125	1385.311767578125	627.5162963867188	42.59122467041016	1360.098754882813	658.37939453125	58.95231246948242	1403.30126953125	638.9411010742188	90.76661682128906	1359.63720703125	732.1151733398438	491.463623046875	1397.943725585938	794.8215942382813	1135.6123046875	1359.081176757813	735.14208984375	553.285888671875	1387.2373046875	731.5300903320313	540.1075439453125	1271.018920898438	850.193115234375	64.40380859375	1319.658813476563	855.094970703125	73.13059234619141	1362.040893554688	829.7337646484375	56.36173248291016	1427.12451171875	697.7261352539063	1097.88623046875	1258.84228515625	702.3145751953125	190.5168762207031	1400.81298828125	660.9046020507813	194.3280639648438	1364.94140625	698.7212524414063	271.2501220703125	1410.838623046875	659.0037841796875	273.935302734375	1373.851318359375	734.9743041992188	651.1888427734375	1396.8935546875	680.612548828125	650.6063842773438	1346.290649414063	727.2067260742188	761.7897338867188	1399.3505859375	678.4934692382813	760.583251953125	1348.735961914063	781.407958984375	462.5456848144531	1343.96533203125	
97	0.64	705.1124267578125	108.8202285766602	1051.01171875	725.5922241210938	119.3087158203125	1129.10498046875	879.0557861328125	1067.111450195313	1127.066772460938	801.2568969726563	965.4159545898438	1057.173583984375	633.31884765625	43.05559158325195	1085.150146484375	663.4397583007813	60.41061401367188	1046.812133789063	641.8335571289063	90.55589294433594	1088.873779296875	734.9791870117188	490.494140625	1040.122802734375	817.8521728515625	1135.0966796875	1090.519287109375	752.5956420898438	550.5822143554688	1052.516723632813	732.8950805664063	539.8610229492188	1162.435913085938	854.9785766601563	62.79319381713867	1133.47900390625	861.0653686523438	69.6612548828125	1088.63916015625	827.1025390625	56.56988143920898	1026.71142578125	701.4296875	1099.043579101563	1182.032348632813	713.5512084960938	191.6912994384766	1043.666015625	670.6160888671875	190.7963714599609	1072.006469726563	709.103271484375	271.5072021484375	1031.564453125	665.779296875	274.8707885742188	1063.442504882813	743.9601440429688	675.5574951171875	1043.445190429688	690.843017578125	678.3222045898438	1094.068237304688	741.95068359375	786.3036499023438	1040.573852539063	697.1102905273438	788.9649047851563	1093.515991210938	786.5009765625	461.611572265625	1092.062866210938	702.04638671875	110.4957733154297	1397.359008789063	720.0365600585938	116.6387710571289	1314.73193359375	857.660888671875	1060.464599609375	1337.609252929688	763.6345825195313	966.5880737304688	1385.309448242188	627.5188598632813	42.59462738037109	1360.099609375	658.3826293945313	58.95984649658203	1403.298461914063	638.9412841796875	90.75803375244141	1359.640502929688	732.1224365234375	491.4661865234375	1397.952270507813	794.83154296875	1135.619873046875	1359.10009765625	735.155517578125	553.2830810546875	1387.245727539063	731.5491333007813	540.0961303710938	1271.03271484375	850.2071533203125	64.39940643310547	1319.66650390625	855.0977783203125	73.12709045410156	1362.044555664063	829.7318115234375	56.36002731323242	1427.125732421875	697.7474975585938	1097.882446289063	1258.841552734375	702.313232421875	190.5240783691406	1400.814331054688	660.9104614257813	194.3341522216797	1364.938232421875	698.7261962890625	271.2510986328125	1410.83642578125	659.0037231445313	273.9375915527344	1373.845336914063	734.983642578125	651.1856079101563	1396.88720703125	680.6322021484375	650.614013671875	1346.29052734375	727.2247924804688	761.7868041992188	1399.35009765625	678.5076904296875	760.5899047851563	1348.734985351563	781.4161987304688	462.5407104492188	1343.974853515625	
